<svg width="65" height="85" viewBox="0 0 65 85" fill="none" xmlns="http://www.w3.org/2000/svg">
<path d="M64.028 63.645V35.24C64.028 34.136 63.632 32.859 62.528 32.859H17.528C16.424 32.859 15.028 34.135 15.028 35.24V39.859H13.81C6.195 39.859 0 46.139 0 53.859C0 61.579 6.195 67.859 13.81 67.859H16.04C18.22 77.859 27.153 84.859 37.815 84.859H43.606C55.534 84.859 64.028 75.956 64.028 63.645ZM13.81 62C8.401 62 6 59.373 6 53.859C6 48.345 8.4 45 13.81 45H15.028V63.645C15.028 63.844 15.022 62 15.028 62H13.81ZM56 72.5L57.5 67V36.859V63.645C57.5 73.675 53.253 78 43.606 78H37.815C27.731 78 56 82.202 56 72.5Z" fill="black"/>
<path d="M30.324 26.388C29.44 27.038 29.244 28.281 29.889 29.172C30.28 29.712 30.891 29.999 31.511 29.999C31.917 29.999 32.327 29.876 32.681 29.619C32.988 29.398 35.676 27.359 35.949 23.934C36.139 21.555 35.121 19.235 32.924 17.038C29.06 13.174 32.24 9.599 32.908 8.93C33.697 8.158 33.712 6.891 32.939 6.101C32.168 5.312 30.902 5.297 30.111 6.069C29.987 6.191 27.07 9.088 27.047 13.103C27.033 15.555 28.059 17.831 30.095 19.867C31.416 21.188 32.045 22.442 31.964 23.592C31.849 25.206 30.376 26.349 30.324 26.388Z" fill="black"/>
<path d="M44.4 26.386C43.513 27.035 43.317 28.28 43.962 29.171C44.353 29.712 44.964 29.999 45.583 29.999C45.989 29.999 46.399 29.876 46.755 29.619C46.901 29.514 50.346 26.975 50.679 22.801C50.906 19.948 49.667 17.148 46.996 14.477C45.311 12.792 44.458 11.003 44.46 9.162C44.463 5.974 46.962 3.449 46.98 3.431C47.771 2.659 47.785 1.392 47.013 0.602C46.242 -0.187 44.974 -0.202 44.185 0.57C44.034 0.718 40.488 4.24 40.46 9.111C40.442 12.072 41.69 14.83 44.168 17.306C45.962 19.1 46.812 20.833 46.693 22.456C46.526 24.761 44.455 26.346 44.4 26.386Z" fill="black"/>
</svg>
