<svg width="64" height="64" viewBox="0 0 64 64" fill="none" xmlns="http://www.w3.org/2000/svg">
<mask id="path-1-outside-1" maskUnits="userSpaceOnUse" x="11.3333" y="3.33334" width="42" height="59" fill="black">
<rect fill="white" x="11.3333" y="3.33334" width="42" height="59"/>
<path fill-rule="evenodd" clip-rule="evenodd" d="M13.3333 24C13.3333 13.68 21.6799 5.33334 31.9999 5.33334C42.3199 5.33334 50.6666 13.68 50.6666 24C50.6666 38 31.9999 58.6667 31.9999 58.6667C31.9999 58.6667 13.3333 38 13.3333 24Z"/>
</mask>
<path fill-rule="evenodd" clip-rule="evenodd" d="M13.3333 24C13.3333 13.68 21.6799 5.33334 31.9999 5.33334C42.3199 5.33334 50.6666 13.68 50.6666 24C50.6666 38 31.9999 58.6667 31.9999 58.6667C31.9999 58.6667 13.3333 38 13.3333 24Z" fill="#010101"/>
<path d="M31.9999 58.6667L30.5157 60.0073L31.9999 61.6505L33.4841 60.0073L31.9999 58.6667ZM31.9999 3.33334C20.5753 3.33334 11.3333 12.5754 11.3333 24H15.3333C15.3333 14.7846 22.7845 7.33334 31.9999 7.33334V3.33334ZM52.6666 24C52.6666 12.5754 43.4245 3.33334 31.9999 3.33334V7.33334C41.2154 7.33334 48.6666 14.7846 48.6666 24H52.6666ZM31.9999 58.6667C33.4841 60.0073 33.4844 60.0069 33.4848 60.0065C33.485 60.0063 33.4854 60.0058 33.4859 60.0053C33.4867 60.0044 33.4879 60.0031 33.4893 60.0015C33.4922 59.9983 33.4961 59.9939 33.5012 59.9883C33.5114 59.9769 33.526 59.9606 33.5449 59.9395C33.5827 59.8972 33.6376 59.8355 33.7085 59.7552C33.8504 59.5946 34.0563 59.3595 34.3172 59.0567C34.8389 58.4513 35.5807 57.5742 36.4695 56.4791C38.2453 54.2911 40.6162 51.2219 42.9912 47.7019C45.3623 44.1876 47.762 40.1877 49.5751 36.1406C51.3765 32.1198 52.6666 27.9047 52.6666 24H48.6666C48.6666 27.0953 47.6234 30.7136 45.9247 34.5052C44.2378 38.2707 41.9709 42.0624 39.6753 45.4647C37.3836 48.8614 35.0879 51.8339 33.3637 53.9584C32.5024 55.0196 31.786 55.8665 31.2868 56.4459C31.0372 56.7355 30.8421 56.9582 30.7106 57.1071C30.6448 57.1816 30.5949 57.2377 30.562 57.2744C30.5456 57.2928 30.5334 57.3064 30.5257 57.315C30.5218 57.3194 30.519 57.3225 30.5173 57.3243C30.5165 57.3252 30.516 57.3258 30.5157 57.3261C30.5155 57.3263 30.5156 57.3263 30.5155 57.3264C30.5156 57.3263 30.5157 57.3261 31.9999 58.6667ZM11.3333 24C11.3333 27.9047 12.6234 32.1198 14.4247 36.1406C16.2378 40.1877 18.6376 44.1876 21.0087 47.7019C23.3836 51.2219 25.7546 54.2911 27.5303 56.4791C28.4191 57.5742 29.161 58.4513 29.6826 59.0567C29.9435 59.3595 30.1494 59.5946 30.2913 59.7552C30.3622 59.8355 30.4172 59.8972 30.4549 59.9395C30.4738 59.9606 30.4884 59.9769 30.4986 59.9883C30.5037 59.9939 30.5077 59.9983 30.5105 60.0015C30.512 60.0031 30.5131 60.0044 30.514 60.0053C30.5144 60.0058 30.5148 60.0063 30.5151 60.0065C30.5154 60.0069 30.5157 60.0073 31.9999 58.6667C33.4841 57.3261 33.4843 57.3263 33.4844 57.3264C33.4843 57.3263 33.4843 57.3263 33.4842 57.3261C33.4839 57.3258 33.4833 57.3252 33.4825 57.3243C33.4808 57.3225 33.478 57.3194 33.4742 57.315C33.4664 57.3064 33.4542 57.2928 33.4378 57.2744C33.4049 57.2377 33.3551 57.1816 33.2893 57.1071C33.1577 56.9582 32.9626 56.7355 32.7131 56.4459C32.2139 55.8665 31.4974 55.0196 30.6362 53.9584C28.9119 51.8339 26.6162 48.8614 24.3245 45.4647C22.0289 42.0624 19.762 38.2707 18.0751 34.5052C16.3765 30.7136 15.3333 27.0953 15.3333 24H11.3333Z" fill="#0CFDD7" mask="url(#path-1-outside-1)"/>
<path d="M30.115 33L27.235 28.95C26.911 28.986 26.575 29.004 26.227 29.004H22.843V33H21.511V20.4H26.227C27.835 20.4 29.095 20.784 30.007 21.552C30.919 22.32 31.375 23.376 31.375 24.72C31.375 25.704 31.123 26.538 30.619 27.222C30.127 27.894 29.419 28.38 28.495 28.68L31.573 33H30.115ZM26.191 27.87C27.439 27.87 28.393 27.594 29.053 27.042C29.713 26.49 30.043 25.716 30.043 24.72C30.043 23.7 29.713 22.92 29.053 22.38C28.393 21.828 27.439 21.552 26.191 21.552H22.843V27.87H26.191ZM37.9928 33.108C37.0568 33.108 36.1568 32.958 35.2928 32.658C34.4408 32.358 33.7808 31.962 33.3128 31.47L33.8348 30.444C34.2908 30.9 34.8968 31.272 35.6528 31.56C36.4088 31.836 37.1888 31.974 37.9928 31.974C39.1208 31.974 39.9668 31.77 40.5308 31.362C41.0948 30.942 41.3768 30.402 41.3768 29.742C41.3768 29.238 41.2208 28.836 40.9088 28.536C40.6088 28.236 40.2368 28.008 39.7928 27.852C39.3488 27.684 38.7308 27.504 37.9388 27.312C36.9908 27.072 36.2348 26.844 35.6708 26.628C35.1068 26.4 34.6208 26.058 34.2128 25.602C33.8168 25.146 33.6188 24.528 33.6188 23.748C33.6188 23.112 33.7868 22.536 34.1228 22.02C34.4588 21.492 34.9748 21.072 35.6708 20.76C36.3668 20.448 37.2308 20.292 38.2628 20.292C38.9828 20.292 39.6848 20.394 40.3688 20.598C41.0648 20.79 41.6648 21.06 42.1688 21.408L41.7188 22.47C41.1908 22.122 40.6268 21.864 40.0268 21.696C39.4268 21.516 38.8388 21.426 38.2628 21.426C37.1588 21.426 36.3248 21.642 35.7608 22.074C35.2088 22.494 34.9328 23.04 34.9328 23.712C34.9328 24.216 35.0828 24.624 35.3828 24.936C35.6948 25.236 36.0788 25.47 36.5348 25.638C37.0028 25.794 37.6268 25.968 38.4068 26.16C39.3308 26.388 40.0748 26.616 40.6388 26.844C41.2148 27.06 41.7008 27.396 42.0968 27.852C42.4928 28.296 42.6908 28.902 42.6908 29.67C42.6908 30.306 42.5168 30.888 42.1688 31.416C41.8328 31.932 41.3108 32.346 40.6028 32.658C39.8948 32.958 39.0248 33.108 37.9928 33.108Z" fill="#0CFDD7"/>
</svg>
