<svg width="216" height="129" viewBox="0 0 216 129" fill="none" xmlns="http://www.w3.org/2000/svg">
<rect x="1.5" y="1.5" width="212.725" height="125.702" rx="2.5" fill="#D4D4D4" stroke="#535461" stroke-width="3"/>
<rect x="97.103" y="40.5" width="27" height="15" fill="#BBB8B8" stroke="#B1B0B0"/>
<rect x="104.603" y="43" width="11" height="5" rx="1" fill="#989696"/>
<line x1="102.103" y1="51.5" x2="118.103" y2="51.5" stroke="#625C5C" stroke-linecap="round"/>
<rect x="101.103" y="95.5" width="28" height="17" fill="white" stroke="#CDCDCD"/>
<rect x="103.603" y="97" width="25" height="5" fill="#C4C4C4"/>
<line x1="111.103" y1="104.5" x2="125.103" y2="104.5" stroke="#CDCDCD" stroke-linecap="round"/>
<line x1="113.103" y1="108.5" x2="126.103" y2="108.5" stroke="#CDCDCD" stroke-linecap="round"/>
<rect x="84.103" y="86.5" width="37" height="22" fill="white" stroke="#CDCDCD"/>
<path d="M84.603 89H119.603V94H84.603V89Z" fill="#C4C4C4"/>
<rect x="91.603" y="96" width="27" height="3" rx="1.5" fill="#C4C4C4"/>
<line x1="88.103" y1="97.5" x2="97.103" y2="97.5" stroke="whitesmoke" stroke-linecap="round"/>
<line x1="88.103" y1="100.5" x2="107.103" y2="100.5" stroke="#CDCDCD" stroke-linecap="round"/>
<line x1="88.103" y1="106.5" x2="110.103" y2="106.5" stroke="#CDCDCD" stroke-linecap="round"/>
<line x1="88.103" y1="103.5" x2="110.103" y2="103.5" stroke="#CDCDCD" stroke-linecap="round"/>
<rect x="144.477" y="18.2939" width="43.3817" height="66.8779" fill="white" stroke="#CDCDCD"/>
<line x1="150.103" y1="38.5" x2="183.103" y2="38.5" stroke="#CDCDCD" stroke-linecap="round"/>
<line x1="154.103" y1="59.5" x2="162.103" y2="59.5" stroke="#CDCDCD" stroke-linecap="round"/>
<line x1="172.103" y1="58.5" x2="181.103" y2="58.5" stroke="whitesmoke" stroke-linecap="round"/>
<line x1="151.103" y1="62.5" x2="182.103" y2="62.5" stroke="#CDCDCD" stroke-linecap="round"/>
<line x1="152.103" y1="65.5" x2="181.103" y2="65.5" stroke="#CDCDCD" stroke-linecap="round"/>
<line x1="159.103" y1="73.5" x2="172.103" y2="73.5" stroke="#CDCDCD" stroke-linecap="round"/>
<rect x="152.603" y="25" width="29" height="8" rx="1" fill="#CDCDCD"/>
<rect x="33.103" y="39.5" width="39.0305" height="43.3817" rx="4.5" fill="white" stroke="#CDCDCD"/>
<line x1="38.103" y1="76.5" x2="64.103" y2="76.5" stroke="#DFDFDF" stroke-linecap="round"/>
<line x1="38.103" y1="72.5" x2="55.103" y2="72.5" stroke="#DFDFDF" stroke-linecap="round"/>
<line x1="38.103" y1="58.5" x2="64.103" y2="58.5" stroke="#DFDFDF" stroke-linecap="round"/>
<line x1="38.103" y1="62.5" x2="55.103" y2="62.5" stroke="#DFDFDF" stroke-linecap="round"/>
<line x1="38.103" y1="54.5" x2="64.103" y2="54.5" stroke="#DFDFDF" stroke-linecap="round"/>
<line x1="37.103" y1="66.5" x2="63.103" y2="66.5" stroke="#DFDFDF" stroke-linecap="round"/>
<circle cx="39.603" cy="48" r="3" fill="#DFDFDF"/>
<path d="M45.603 49.5H56.103H66.603M45.603 47H66.603" stroke="#DFDFDF" stroke-linecap="round"/>
<line x1="37.103" y1="69.5" x2="63.103" y2="69.5" stroke="#DFDFDF" stroke-linecap="round"/>
<rect x="26.103" y="28.5" width="39.0305" height="43.3817" rx="4.5" fill="white" stroke="#CDCDCD"/>
<line x1="31.103" y1="65.5" x2="57.103" y2="65.5" stroke="#DFDFDF" stroke-linecap="round"/>
<line x1="31.103" y1="61.5" x2="48.103" y2="61.5" stroke="#DFDFDF" stroke-linecap="round"/>
<line x1="31.103" y1="47.5" x2="57.103" y2="47.5" stroke="#DFDFDF" stroke-linecap="round"/>
<line x1="31.103" y1="51.5" x2="48.103" y2="51.5" stroke="#DFDFDF" stroke-linecap="round"/>
<line x1="31.103" y1="43.5" x2="57.103" y2="43.5" stroke="#DFDFDF" stroke-linecap="round"/>
<line x1="30.103" y1="55.5" x2="56.103" y2="55.5" stroke="#DFDFDF" stroke-linecap="round"/>
<circle cx="32.603" cy="37" r="3" fill="#DFDFDF"/>
<path d="M38.603 38.5H49.103H59.603M38.603 36H59.603" stroke="#DFDFDF" stroke-linecap="round"/>
<line x1="30.103" y1="58.5" x2="56.103" y2="58.5" stroke="#DFDFDF" stroke-linecap="round"/>
<rect x="33.103" y="39.5" width="39.0305" height="43.3817" rx="4.5" fill="white" stroke="#CDCDCD"/>
<line x1="38.103" y1="76.5" x2="64.103" y2="76.5" stroke="#DFDFDF" stroke-linecap="round"/>
<line x1="38.103" y1="72.5" x2="55.103" y2="72.5" stroke="#DFDFDF" stroke-linecap="round"/>
<line x1="38.103" y1="58.5" x2="64.103" y2="58.5" stroke="#DFDFDF" stroke-linecap="round"/>
<line x1="38.103" y1="62.5" x2="55.103" y2="62.5" stroke="#DFDFDF" stroke-linecap="round"/>
<line x1="38.103" y1="54.5" x2="64.103" y2="54.5" stroke="#DFDFDF" stroke-linecap="round"/>
<line x1="37.103" y1="66.5" x2="63.103" y2="66.5" stroke="#DFDFDF" stroke-linecap="round"/>
<circle cx="39.603" cy="48" r="3" fill="#DFDFDF"/>
<path d="M45.603 49.5H56.103H66.603M45.603 47H66.603" stroke="#DFDFDF" stroke-linecap="round"/>
<line x1="37.103" y1="69.5" x2="63.103" y2="69.5" stroke="#DFDFDF" stroke-linecap="round"/>
</svg>
