<svg width="198" height="97" viewBox="0 0 198 97" fill="none" xmlns="http://www.w3.org/2000/svg">
<rect width="198" height="97" fill="#353542"/>
<rect x="42.4763" y="16.3846" width="123.129" height="3.07692" rx="1.53846" fill="#535461"/>
<rect x="16.6191" y="65" width="61.5646" height="3.07692" rx="1.53846" fill="#FFFFFF"/>
<rect x="42" y="72" width="141.599" height="3.07692" rx="1.53846" fill="#FFFFFF"/>
<rect x="33" y="87" width="141.599" height="3.07692" rx="1.53846" fill="#535461"/>
<rect x="47.4014" y="45.923" width="141.599" height="3.07692" rx="1.53846" fill="#C4C4C4"/>
<rect x="57.2517" y="31.1538" width="61.5646" height="3.07692" rx="1.53846" fill="#FFFFFF"/>
<rect x="21" y="79" width="116.973" height="3.07692" rx="1.53846" fill="#C4C4C4"/>
<path d="M96.6531 25.3077C96.6531 24.458 97.3419 23.7692 98.1916 23.7692H176.38C177.23 23.7692 177.918 24.458 177.918 25.3077V25.3077C177.918 26.1574 177.23 26.8461 176.38 26.8461H98.1916C97.3419 26.8461 96.6531 26.1574 96.6531 25.3077V25.3077Z" fill="#C4C4C4"/>
<rect x="17.8504" y="9" width="61.5646" height="3.07692" rx="1.53846" fill="#FFFFFF"/>
<rect x="26.4694" y="38.5385" width="141.599" height="3.07692" rx="1.53846" fill="#535461"/>
</svg>
