<svg width="183" height="239" viewBox="0 0 183 239" fill="none" xmlns="http://www.w3.org/2000/svg">
<rect width="183" height="239" fill="#353542"/>
<rect x="22" y="191" width="40" height="5" rx="2.5" fill="#FFFFFF"/>
<rect x="51" y="203" width="81" height="5" rx="2.5" fill="#535461"/>
<rect x="65" y="215" width="81" height="5" rx="2.5" fill="#C4C4C4"/>
<rect x="42" y="33" width="100" height="5" rx="2.5" fill="#535461"/>
<rect x="21" y="112" width="50" height="5" rx="2.5" fill="#FFFFFF"/>
<rect x="40" y="148" width="115" height="5" rx="2.5" fill="#FFFFFF"/>
<rect x="112" y="160" width="40" height="5" rx="2.5" fill="#C4C4C4"/>
<rect x="42" y="124" width="115" height="5" rx="2.5" fill="#535461"/>
<rect x="46" y="81" width="115" height="5" rx="2.5" fill="#C4C4C4"/>
<rect x="54" y="57" width="50" height="5" rx="2.5" fill="#FFFFFF"/>
<rect x="14" y="136" width="95" height="5" rx="2.5" fill="#535461"/>
<path d="M86 47.5C86 46.1193 87.1193 45 88.5 45H149.5C150.881 45 152 46.1193 152 47.5V47.5C152 48.8807 150.881 50 149.5 50H88.5C87.1193 50 86 48.8807 86 47.5V47.5Z" fill="#C4C4C4"/>
<rect x="22" y="21" width="50" height="5" rx="2.5" fill="#FFFFFF"/>
<rect x="29" y="69" width="115" height="5" rx="2.5" fill="#535461"/>
</svg>
