<svg width="168" height="57" viewBox="0 0 168 57" fill="none" xmlns="http://www.w3.org/2000/svg">
<path d="M28.1927 6.75675L28.434 6.94779C28.434 7.01482 28.4072 7.08855 28.3536 7.16899C28.3067 7.24943 27.8341 8.1577 26.9359 9.89381C25.9372 11.7573 23.3129 16.6304 19.0633 24.5133C23.8291 22.7437 28.0922 20.0993 31.8525 16.5802C35.6196 13.0543 37.5031 9.95749 37.5031 7.28965C37.5031 5.84177 36.796 4.65197 35.3817 3.72023C33.9673 2.7818 31.8257 2.31258 28.9568 2.31258C26.0947 2.31258 23.0147 2.91586 19.7168 4.12242C16.4189 5.32898 13.5165 6.77016 11.0096 8.44594C8.49602 10.1217 6.39464 11.8444 4.70549 13.614C3.01634 15.3837 2.17176 16.8315 2.17176 17.9577C2.17176 19.2111 3.17721 19.8379 5.1881 19.8379C7.19899 19.8379 9.50147 19.1709 12.0955 17.837C14.6829 16.4964 17.0054 14.7167 19.0633 12.498C19.4185 12.0824 19.6464 11.8746 19.747 11.8746C19.9682 11.8746 20.0788 11.9852 20.0788 12.2064C20.0788 12.2734 19.9682 12.5013 19.747 12.8901C18.6812 14.4989 16.3217 16.3891 12.6686 18.5609C9.0222 20.7328 5.99916 21.8187 3.5995 21.8187C1.19983 21.8187 0 21.0612 0 19.5463C0 18.1923 0.958525 16.4461 2.87558 14.3078C4.79263 12.1695 7.18224 10.0882 10.0444 8.06386C12.9066 6.03281 16.2346 4.29335 20.0285 2.84548C23.8291 1.3976 27.328 0.673662 30.5253 0.673662C33.7294 0.673662 36.0888 1.17975 37.6037 2.19192C39.1119 3.2108 39.8659 4.52461 39.8659 6.13336C39.8659 8.92856 38.0897 12.1125 34.5371 15.6853C30.9778 19.2581 26.6912 22.1203 21.6774 24.272C24.9217 24.3055 27.623 25.7132 29.7813 28.495C31.9397 31.2835 33.0323 34.511 33.0591 38.1776C33.0591 38.6267 32.9786 38.8513 32.8178 38.8513C32.5631 38.8513 32.3888 38.5698 32.2949 38.0067C32.1944 37.4436 32.0804 36.8873 31.9531 36.3376C31.8257 35.7947 31.4302 34.8294 30.7667 33.4419C30.1098 32.061 29.3389 30.8411 28.4541 29.782C27.5693 28.7162 26.2891 27.7509 24.6133 26.8862C22.9443 26.0148 21.0641 25.5791 18.9728 25.5791H18.4399C16.1207 29.7954 14.1734 33.2877 12.5982 36.0561C12.4039 36.4717 12.0519 36.7934 11.5425 37.0213C11.0264 37.2425 10.6309 37.3532 10.3561 37.3532C10.0813 37.3532 9.94386 37.2727 9.94386 37.1118L15.8861 26.3031C14.5991 26.6248 13.2786 26.8661 11.9246 27.027C11.3481 27.027 11.0599 26.9298 11.0599 26.7354C11.0599 26.3801 11.2342 26.1891 11.5827 26.1623C13.0641 26.0617 14.6728 25.7869 16.4089 25.3378L26.1114 7.67172C26.212 7.41701 26.5036 7.19915 26.9862 7.01817C27.4688 6.84389 27.871 6.75675 28.1927 6.75675ZM46.9644 27.9922C46.9644 28.0258 46.6024 28.5955 45.8785 29.7015C45.1546 30.8143 44.5915 31.6588 44.1894 32.2353C43.7872 32.8185 42.1047 35.5232 39.142 40.3494C39.4034 40.3159 39.8224 40.2992 40.3988 40.2992C41.9405 40.2992 42.7114 40.7014 42.7114 41.5057C42.7114 41.9548 42.4231 42.4844 41.8467 43.0944C41.2702 43.7111 40.8211 44.0194 40.4994 44.0194C40.1776 44.0194 40.0168 43.9055 40.0168 43.6775C40.0168 43.5502 40.191 43.3491 40.5396 43.0743C40.8948 42.7994 41.0725 42.4777 41.0725 42.109C41.0725 41.7403 40.7608 41.556 40.1374 41.556C39.5073 41.556 38.9041 41.6029 38.3276 41.6968C35.3984 46.4895 32.8714 50.2399 30.7465 52.948C28.6217 55.6493 26.8052 57 25.297 57C24.1977 57 23.6481 56.4369 23.6481 55.3108C23.6481 53.3803 25.106 50.7024 28.0218 47.2771C30.9309 43.8451 34.0913 41.6465 37.5031 40.6812L42.1382 32.6777C40.7842 33.8977 39.3934 34.9735 37.9656 35.9053C36.5312 36.837 35.4453 37.3029 34.708 37.3029C33.964 37.3029 33.592 36.9677 33.592 36.2974C33.592 35.2651 35.2811 32.4163 38.6594 27.7509C38.8203 27.4962 39.0314 27.3688 39.2928 27.3688C40.0302 27.5901 40.3988 27.7509 40.3988 27.8515C40.3988 27.9453 40.3016 28.1364 40.1072 28.4246C37.2116 32.3526 35.7637 34.6216 35.7637 35.2316C35.7637 35.6204 35.9816 35.8148 36.4173 35.8148C36.853 35.8148 37.7545 35.2986 39.1219 34.2664C40.4893 33.2341 41.6556 32.1884 42.6209 31.1293L45.3255 27.8515C45.5132 27.6236 45.7545 27.5096 46.0494 27.5096C46.6594 27.6035 46.9644 27.7643 46.9644 27.9922ZM28.3335 48.2826C27.4018 49.5562 26.6611 50.7627 26.1114 51.9023C25.5685 53.0485 25.297 53.9501 25.297 54.607C25.297 55.2706 25.5517 55.6024 26.0612 55.6024C27.6699 55.6024 31.1956 51.0979 36.6385 42.0889C35.0297 42.5983 33.4747 43.4429 31.9732 44.6227C30.4784 45.7957 29.2652 47.0157 28.3335 48.2826ZM55.7922 31.2701C55.5978 31.2701 55.5006 31.1595 55.5006 30.9383L55.6514 30.5964C56.2279 30.0534 56.5161 29.5876 56.5161 29.1988C56.5161 28.7162 56.2581 28.4749 55.7419 28.4749C54.6158 28.4749 53.0976 29.2558 51.1873 30.8176C49.2702 32.3794 48.3117 33.7703 48.3117 34.9903C48.3117 35.5064 48.6502 35.7645 49.3272 35.7645C50.0042 35.7645 50.7851 35.483 51.6699 34.9199C52.5547 34.3569 53.3088 33.7938 53.9321 33.2307C54.5622 32.6677 54.9108 32.3861 54.9778 32.3861C55.2995 32.4197 55.4604 32.5805 55.4604 32.8688C55.4604 32.9961 55.2091 33.4151 54.7063 34.1256C54.2103 34.8294 53.9623 35.3925 53.9623 35.8148C53.9623 36.1365 54.2271 36.2974 54.7566 36.2974C55.2861 36.2974 56.2279 35.9824 57.5819 35.3523C58.9292 34.7222 60.119 34.0854 61.1512 33.4419L62.6996 32.4766C62.7264 32.5437 62.7398 32.6744 62.7398 32.8688C62.7398 33.0632 62.5957 33.224 62.3075 33.3514C57.964 36.3075 54.9409 37.7855 53.2384 37.7855C52.4005 37.7855 51.9816 37.3699 51.9816 36.5387C51.9816 36.1835 52.0452 35.8114 52.1726 35.4227C51.9514 35.6841 51.2845 36.0796 50.1718 36.6091C49.0591 37.1386 48.0704 37.4034 47.2057 37.4034C46.3343 37.4034 45.8986 37.0012 45.8986 36.1969C45.8986 34.2999 47.2191 32.3627 49.8601 30.3853C52.4943 28.4011 54.713 27.4091 56.5161 27.4091C57.5819 27.4091 58.1148 27.8615 58.1148 28.7665C58.1148 29.2826 57.793 29.8289 57.1496 30.4054C56.5061 30.9818 56.0536 31.2701 55.7922 31.2701ZM61.292 33.3514C61.9087 32.9961 62.713 32.4331 63.7051 31.6622C66.1517 29.7317 67.4554 28.7665 67.6163 28.7665C68.0989 28.7665 68.3402 28.9742 68.3402 29.3898C68.3402 29.8121 68.0922 30.4556 67.5961 31.3203C67.0934 32.1917 66.5304 33.0933 65.907 34.025C65.2769 34.9568 64.915 35.5198 64.8211 35.7142C64.8546 35.7478 64.925 35.7645 65.0323 35.7645C65.1462 35.7645 65.783 35.3389 66.9426 34.4876C68.1022 33.6296 69.3088 32.728 70.5622 31.7829C71.8157 30.831 72.5563 30.2847 72.7842 30.1439C73.0054 29.9965 73.2132 29.9227 73.4076 29.9227C73.7964 29.9563 73.9908 30.1808 73.9908 30.5964C73.9908 30.7573 73.4445 31.5717 72.3519 33.0397C71.2526 34.501 70.703 35.4394 70.703 35.855C70.703 36.1499 71.0515 36.2974 71.7486 36.2974C72.439 36.2974 73.4579 35.9824 74.8052 35.3523C76.1592 34.7222 77.3523 34.0854 78.3846 33.4419L79.9229 32.4766C79.9564 32.5437 79.9732 32.6744 79.9732 32.8688C79.9732 33.0632 79.8291 33.224 79.5408 33.3514C75.1973 36.3075 72.1709 37.7855 70.4617 37.7855C69.4696 37.7855 68.9736 37.4001 68.9736 36.6292C68.9736 35.8919 69.1881 35.1847 69.6171 34.5077C70.0528 33.8307 70.4315 33.2609 70.7532 32.7984C71.075 32.3292 71.2359 32.0778 71.2359 32.0443C69.7545 33.1101 68.0017 34.3803 65.9774 35.855C63.9531 37.3364 62.8102 38.0771 62.5488 38.0771C62.3544 38.0771 62.2572 37.8525 62.2572 37.4034C62.2572 36.9543 62.894 35.7813 64.1676 33.8843C65.4411 31.9806 66.0779 30.9651 66.0779 30.8377C66.0779 30.7104 66.0444 30.6467 65.9774 30.6467L65.4948 30.888L63.0817 32.8185C62.9208 32.9458 62.6158 33.1536 62.1667 33.4419C61.7176 33.7368 61.4361 33.8843 61.3222 33.8843C61.2082 33.8843 61.1512 33.8105 61.1512 33.6631C61.1512 33.5156 61.1982 33.4117 61.292 33.3514ZM109.463 14.338C108.209 14.338 107.583 13.7883 107.583 12.689C107.583 11.0199 108.514 9.4447 110.378 7.96331C112.241 6.48192 114.46 5.27536 117.034 4.34362C116.813 3.41189 116.236 2.69466 115.305 2.19192C114.366 1.69589 113.213 1.44787 111.846 1.44787C110.478 1.44787 109.064 1.70594 107.603 2.22208C106.142 2.73822 104.757 3.46887 103.45 4.41401C102.15 5.36585 101.088 6.62268 100.263 8.18451C99.4453 9.73964 99.0365 11.4523 99.0365 13.3225C99.0365 13.966 99.5191 15.8462 100.484 18.9631C101.45 22.0868 101.932 24.6775 101.932 26.7354C101.932 27.2515 101.868 27.9922 101.741 28.9575C102.961 28.8301 103.846 28.7665 104.395 28.7665C107.512 28.7665 109.071 29.5876 109.071 31.2298C109.071 31.8063 108.897 32.2889 108.548 32.6777C108.193 33.0598 107.596 33.5089 106.758 34.025C106.504 33.8642 106.376 33.7201 106.376 33.5927C106.376 33.4653 106.44 33.3514 106.567 33.2508C107.532 32.7079 108.015 32.1616 108.015 31.6119C108.015 30.5193 106.745 29.973 104.204 29.973C103.266 29.973 102.364 30.0367 101.5 30.1641C100.95 32.2219 99.9279 34.1457 98.4332 35.9354C96.9384 37.7185 95.2727 39.1663 93.4361 40.2791C91.6062 41.3851 89.7662 42.2431 87.9162 42.8531C86.0662 43.4697 84.4307 43.7781 83.0096 43.7781C80.8245 43.7781 79.7319 43.1346 79.7319 41.8476C79.7319 40.0445 80.858 38.2246 83.1102 36.3879C85.3624 34.558 88.0402 33.0229 91.1437 31.7829C94.2472 30.5428 97.297 29.6647 100.293 29.1485C100.421 28.2503 100.484 27.5264 100.484 26.9767C100.484 25.5959 99.9782 23.4341 98.9661 20.4914C97.9539 17.5421 97.4478 15.0083 97.4478 12.8901C97.4478 10.7652 98.2824 8.64703 99.9514 6.53554C101.627 4.43076 103.615 2.81531 105.914 1.68919C108.213 0.563063 110.391 0 112.449 0C115.7 0 117.486 1.36744 117.808 4.10231C119.611 3.52584 120.835 3.23761 121.478 3.23761C122.122 3.23761 122.467 3.26107 122.514 3.30799C122.561 3.35491 122.584 3.53925 122.584 3.861C122.584 4.18275 122.44 4.39054 122.152 4.48439C120.704 4.55142 119.273 4.76257 117.858 5.11783C117.791 7.72535 116.809 9.91392 114.912 11.6835C113.015 13.4532 111.199 14.338 109.463 14.338ZM81.6121 40.641C81.6121 41.5728 82.5471 42.0386 84.4173 42.0386C87.018 42.0386 89.9271 41.1035 93.1445 39.2334C94.7264 38.3352 96.1508 37.1051 97.4177 35.5433C98.6912 33.9815 99.5693 32.2521 100.052 30.3551C97.3171 30.8042 94.5723 31.5281 91.8174 32.5269C89.0691 33.5257 86.6829 34.7557 84.6586 36.217C82.6276 37.685 81.6121 39.1596 81.6121 40.641ZM109.121 12.4075C109.121 13.0175 109.443 13.3225 110.086 13.3225C111.313 13.3225 112.784 12.4946 114.5 10.8389C116.223 9.17657 117.101 7.34998 117.134 5.35915C114.882 6.06298 112.985 7.04498 111.444 8.30517C109.895 9.55865 109.121 10.9261 109.121 12.4075ZM118.049 31.2701C117.855 31.2701 117.758 31.1595 117.758 30.9383L117.909 30.5964C118.485 30.0534 118.773 29.5876 118.773 29.1988C118.773 28.7162 118.515 28.4749 117.999 28.4749C116.873 28.4749 115.355 29.2558 113.444 30.8176C111.527 32.3794 110.569 33.7703 110.569 34.9903C110.569 35.5064 110.907 35.7645 111.584 35.7645C112.261 35.7645 113.042 35.483 113.927 34.9199C114.812 34.3569 115.566 33.7938 116.189 33.2307C116.819 32.6677 117.168 32.3861 117.235 32.3861C117.557 32.4197 117.718 32.5805 117.718 32.8688C117.718 32.9961 117.466 33.4151 116.964 34.1256C116.468 34.8294 116.22 35.3925 116.22 35.8148C116.22 36.1365 116.484 36.2974 117.014 36.2974C117.543 36.2974 118.485 35.9824 119.839 35.3523C121.186 34.7222 122.376 34.0854 123.408 33.4419L124.957 32.4766C124.984 32.5437 124.997 32.6744 124.997 32.8688C124.997 33.0632 124.853 33.224 124.565 33.3514C120.221 36.3075 117.198 37.7855 115.496 37.7855C114.658 37.7855 114.239 37.3699 114.239 36.5387C114.239 36.1835 114.302 35.8114 114.43 35.4227C114.209 35.6841 113.542 36.0796 112.429 36.6091C111.316 37.1386 110.328 37.4034 109.463 37.4034C108.592 37.4034 108.156 37.0012 108.156 36.1969C108.156 34.2999 109.476 32.3627 112.117 30.3853C114.752 28.4011 116.97 27.4091 118.773 27.4091C119.839 27.4091 120.372 27.8615 120.372 28.7665C120.372 29.2826 120.05 29.8289 119.407 30.4054C118.763 30.9818 118.311 31.2701 118.049 31.2701ZM123.549 33.3514C124.166 32.9961 124.97 32.4331 125.962 31.6622C128.409 29.7317 129.713 28.7665 129.873 28.7665C130.356 28.7665 130.597 28.9742 130.597 29.3898C130.597 29.8121 130.349 30.4556 129.853 31.3203C129.351 32.1917 128.788 33.0933 128.164 34.025C127.534 34.9568 127.172 35.5198 127.078 35.7142C127.112 35.7478 127.182 35.7645 127.289 35.7645C127.403 35.7645 128.04 35.3389 129.2 34.4876C130.359 33.6296 131.566 32.728 132.819 31.7829C134.073 30.831 134.814 30.2847 135.041 30.1439C135.263 29.9965 135.47 29.9227 135.665 29.9227C136.054 29.9563 136.248 30.1808 136.248 30.5964C136.248 30.7573 135.702 31.5717 134.609 33.0397C133.51 34.501 132.96 35.4394 132.96 35.855C132.96 36.1499 133.309 36.2974 134.006 36.2974C134.696 36.2974 135.715 35.9824 137.062 35.3523C138.416 34.7222 139.61 34.0854 140.642 33.4419L142.18 32.4766C142.214 32.5437 142.23 32.6744 142.23 32.8688C142.23 33.0632 142.086 33.224 141.798 33.3514C137.455 36.3075 134.428 37.7855 132.719 37.7855C131.727 37.7855 131.231 37.4001 131.231 36.6292C131.231 35.8919 131.445 35.1847 131.874 34.5077C132.31 33.8307 132.689 33.2609 133.01 32.7984C133.332 32.3292 133.493 32.0778 133.493 32.0443C132.012 33.1101 130.259 34.3803 128.235 35.855C126.21 37.3364 125.067 38.0771 124.806 38.0771C124.612 38.0771 124.514 37.8525 124.514 37.4034C124.514 36.9543 125.151 35.7813 126.425 33.8843C127.698 31.9806 128.335 30.9651 128.335 30.8377C128.335 30.7104 128.302 30.6467 128.235 30.6467L127.752 30.888L125.339 32.8185C125.178 32.9458 124.873 33.1536 124.424 33.4419C123.975 33.7368 123.693 33.8843 123.579 33.8843C123.465 33.8843 123.408 33.8105 123.408 33.6631C123.408 33.5156 123.455 33.4117 123.549 33.3514ZM141.848 21.0947C144.034 21.0947 146.189 21.078 148.313 21.0445C151.752 16.6338 154.101 14.4285 155.362 14.4285C155.811 14.4285 156.035 14.6698 156.035 15.1524C156.035 16.7008 154.909 18.6313 152.657 20.9439L156.327 20.8936C158.767 20.7998 160.261 20.7529 160.811 20.7529C161.361 20.7529 161.636 20.8165 161.636 20.9439C161.636 21.5539 161.217 21.8756 160.379 21.9092L151.3 22.3013C149.724 23.776 147.78 25.3345 145.468 26.9767C143.021 30.9986 141.798 33.7335 141.798 35.1813C141.798 35.9254 142.271 36.2974 143.216 36.2974C144.168 36.2974 145.672 35.7813 147.73 34.749L151.641 32.4766C151.675 32.5437 151.692 32.6744 151.692 32.8688C151.692 33.0632 151.548 33.224 151.259 33.3514C150.227 34.0552 149.101 34.7624 147.881 35.4729C145.274 36.7934 143.276 37.4537 141.889 37.4537C141.245 37.4537 140.749 37.323 140.401 37.0616C140.045 36.8068 139.851 36.5521 139.817 36.2974L139.717 35.9053C139.717 34.8127 140.457 32.9727 141.939 30.3853C143.42 27.7911 145.173 25.1434 147.197 22.4421C145.656 22.5091 144.194 22.5426 142.814 22.5426C141.426 22.5426 140.732 22.3817 140.732 22.06C140.732 21.4433 141.104 21.1215 141.848 21.0947ZM154.537 16.1679C154.537 16.0071 154.473 15.9266 154.346 15.9266C153.602 15.9266 151.96 17.6158 149.419 20.9942H151.832C153.636 19.0302 154.537 17.4214 154.537 16.1679ZM150.485 22.3415C149.453 22.3415 148.759 22.3583 148.404 22.3918C148.116 22.8141 147.713 23.4274 147.197 24.2318C146.688 25.0362 146.336 25.5825 146.142 25.8707C147.811 24.644 149.258 23.4676 150.485 22.3415ZM161.002 33.643C160.003 34.253 158.847 34.558 157.533 34.558H156.95C156.079 35.5567 155.154 36.3678 154.175 36.9912C153.196 37.6213 152.352 37.9363 151.641 37.9363C150.643 37.9363 150.143 37.2928 150.143 36.0058C150.143 34.7188 150.837 33.2207 152.225 31.5114C152.091 31.1628 152.023 30.7305 152.023 30.2143C152.023 29.0882 152.516 28.1129 153.501 27.2884C154.48 26.4706 155.435 26.0617 156.367 26.0617C158.331 26.0617 159.313 27.1242 159.313 29.2491C159.313 30.6634 158.703 32.2085 157.483 33.8843H158.056C159.088 33.8843 159.973 33.643 160.711 33.1603C160.811 33.0598 160.942 33.0095 161.103 33.0095C161.264 33.0095 161.344 33.0665 161.344 33.1805C161.344 33.2944 161.23 33.4486 161.002 33.643ZM156.367 28.0928C156.528 28.0258 156.659 27.9922 156.759 27.9922C156.853 27.9922 156.9 28.066 156.9 28.2134C156.9 28.3542 156.722 28.5553 156.367 28.8167C155.08 29.8088 154.115 30.707 153.471 31.5114C154.182 32.6375 155.261 33.3782 156.709 33.7335C157.962 32.2521 158.589 30.8679 158.589 29.5809C158.589 28.8435 158.348 28.2805 157.865 27.8917C157.383 27.5096 156.762 27.3186 156.005 27.3186C155.254 27.3186 154.557 27.5364 153.914 27.9721C153.27 28.4011 152.948 28.867 152.948 29.3697C152.948 29.8658 152.995 30.2579 153.089 30.5461C154.088 29.5206 155.181 28.7028 156.367 28.0928ZM152.798 32.5772C152.282 33.4486 152.023 34.4138 152.023 35.4729C152.023 36.0494 152.282 36.3376 152.798 36.3376C153.669 36.3376 154.748 35.6941 156.035 34.4071C154.587 34.1524 153.508 33.5424 152.798 32.5772ZM163.365 31.7527C161.823 33.1738 160.845 33.8843 160.429 33.8843C160.295 33.8843 160.228 33.8173 160.228 33.6832C160.228 33.5558 160.278 33.4452 160.379 33.3514C161.15 32.9291 162.051 32.2521 163.083 31.3203C162.922 30.9383 162.842 30.5193 162.842 30.0635C162.842 28.9709 163.405 27.9252 164.531 26.9264C165.657 25.9344 166.606 25.4383 167.377 25.4383C167.792 25.4383 168 25.6394 168 26.0416C168 26.4438 167.357 27.4158 166.07 28.9575C165.942 29.1184 165.798 29.2792 165.637 29.4401C165.476 29.601 165.309 29.7853 165.134 29.9931C164.954 30.2009 164.816 30.3551 164.722 30.4556C164.883 30.6165 165.171 30.898 165.587 31.3002C166.009 31.7024 166.348 32.0309 166.602 32.2856C167.313 32.9961 167.668 33.8809 167.668 34.94C167.668 36.0058 167.008 36.9309 165.687 37.7151C164.367 38.5061 162.99 38.9016 161.555 38.9016C160.127 38.9016 159.413 38.4759 159.413 37.6246C159.413 36.7666 160.074 35.9857 161.394 35.2819C162.708 34.5714 164.089 34.0887 165.537 33.834C165.349 33.5726 164.987 33.2341 164.451 32.8185C163.921 32.4029 163.559 32.0476 163.365 31.7527ZM165.879 34.4071C164.786 34.5412 163.757 34.8395 162.792 35.302C161.827 35.7712 161.344 36.3175 161.344 36.9409C161.344 37.571 161.786 37.886 162.671 37.886C163.556 37.886 164.344 37.6782 165.034 37.2627C165.724 36.8404 166.07 36.3711 166.07 35.855C166.07 35.3456 166.006 34.8629 165.879 34.4071ZM164.38 30.0635L165.637 28.7162C166.475 27.7174 166.894 27.1141 166.894 26.9063C166.894 26.6985 166.797 26.5946 166.602 26.5946C166.053 26.5946 165.49 26.8594 164.913 27.389C164.337 27.9185 164.049 28.4346 164.049 28.9374C164.049 29.4334 164.159 29.8088 164.38 30.0635Z" fill="black"/>
</svg>
